<?xml version="1.0" encoding="UTF-8" standalone="no"?>
<svg
   xmlns:dc="http://purl.org/dc/elements/1.1/"
   xmlns:cc="http://creativecommons.org/ns#"
   xmlns:rdf="http://www.w3.org/1999/02/22-rdf-syntax-ns#"
   xmlns:svg="http://www.w3.org/2000/svg"
   xmlns="http://www.w3.org/2000/svg"
   xmlns:sodipodi="http://sodipodi.sourceforge.net/DTD/sodipodi-0.dtd"
   xmlns:inkscape="http://www.inkscape.org/namespaces/inkscape"
   width="24"
   height="24"
   viewBox="0 0 24 24"
   version="1.1"
   id="SVGRoot"
   inkscape:version="1.0.2 (e86c870879, 2021-01-15)"
   sodipodi:docname="statistics.svg">
  <defs
     id="defs817" />
  <sodipodi:namedview
     id="base"
     pagecolor="#ffffff"
     bordercolor="#666666"
     borderopacity="1.0"
     inkscape:pageopacity="0.0"
     inkscape:pageshadow="2"
     inkscape:zoom="22.84"
     inkscape:cx="6.5198722"
     inkscape:cy="10.766428"
     inkscape:document-units="px"
     inkscape:current-layer="layer1"
     showgrid="true"
     inkscape:window-width="1920"
     inkscape:window-height="1005"
     inkscape:window-x="0"
     inkscape:window-y="0"
     inkscape:window-maximized="1"
     inkscape:grid-bbox="true"
     inkscape:document-rotation="0">
    <inkscape:grid
       type="xygrid"
       id="grid1373" />
  </sodipodi:namedview>
  <metadata
     id="metadata820">
    <rdf:RDF>
      <cc:Work
         rdf:about="">
        <dc:format>image/svg+xml</dc:format>
        <dc:type
           rdf:resource="http://purl.org/dc/dcmitype/StillImage" />
        <dc:title />
      </cc:Work>
    </rdf:RDF>
  </metadata>
  <g
     inkscape:label="Livello 1"
     inkscape:groupmode="layer"
     id="layer1"
     transform="translate(0,-24)">
    <rect
       rx="0"
       ry="0"
       y="38.255718"
       x="4.0345249"
       height="3.9999981"
       width="3.6044104"
       id="rect819"
       style="opacity:1;fill:#dfdfdf;fill-opacity:1;fill-rule:nonzero;stroke:none;stroke-width:0.283741;stroke-linecap:round;stroke-linejoin:round;stroke-miterlimit:4;stroke-dasharray:none;stroke-opacity:0.984849" />
    <rect
       rx="0"
       ry="0"
       y="34.255718"
       x="10.197795"
       height="7.9999981"
       width="3.6044104"
       id="rect823"
       style="opacity:1;fill:#dfdfdf;fill-opacity:1;fill-rule:nonzero;stroke:none;stroke-width:0.40127;stroke-linecap:round;stroke-linejoin:round;stroke-miterlimit:4;stroke-dasharray:none;stroke-opacity:0.984849" />
    <rect
       style="opacity:1;fill:#dfdfdf;fill-opacity:1;fill-rule:nonzero;stroke:none;stroke-width:0.491453;stroke-linecap:round;stroke-linejoin:round;stroke-miterlimit:4;stroke-dasharray:none;stroke-opacity:0.984849"
       id="rect825"
       width="3.6044104"
       height="11.999998"
       x="16.39559"
       y="30.255686"
       ry="0"
       rx="0" />
    <path
       id="path948"
       style="display:inline;fill:#dfdfdf;stroke-width:0.26;enable-background:new;fill-opacity:1"
       d="M 12,24 A 12,12 0 0 0 0,36 12,12 0 0 0 12,48 12,12 0 0 0 24,36 12,12 0 0 0 12,24 Z m -0.0332,1.29492 a 10.704659,10.704659 0 0 1 0.0332,0 A 10.704659,10.704659 0 0 1 22.705075,36 10.704659,10.704659 0 0 1 12,46.70508 10.704659,10.704659 0 0 1 1.294922,36 10.704659,10.704659 0 0 1 11.966797,25.29492 Z" />
  </g>
</svg>
