<?xml version="1.0" encoding="UTF-8" standalone="no"?>
<svg
   version="1"
   viewBox="0 0 24 24"
   enable-background="new 0 0 48 48"
   id="svg12"
   sodipodi:docname="options.svg"
   inkscape:version="1.2.2 (b0a8486541, 2022-12-01)"
   width="24"
   height="24"
   xmlns:inkscape="http://www.inkscape.org/namespaces/inkscape"
   xmlns:sodipodi="http://sodipodi.sourceforge.net/DTD/sodipodi-0.dtd"
   xmlns="http://www.w3.org/2000/svg"
   xmlns:svg="http://www.w3.org/2000/svg"
   xmlns:rdf="http://www.w3.org/1999/02/22-rdf-syntax-ns#"
   xmlns:cc="http://creativecommons.org/ns#"
   xmlns:dc="http://purl.org/dc/elements/1.1/">
  <metadata
     id="metadata18">
    <rdf:RDF>
      <cc:Work
         rdf:about="">
        <dc:format>image/svg+xml</dc:format>
        <dc:type
           rdf:resource="http://purl.org/dc/dcmitype/StillImage" />
        <dc:title />
      </cc:Work>
    </rdf:RDF>
  </metadata>
  <defs
     id="defs16">
    <inkscape:perspective
       sodipodi:type="inkscape:persp3d"
       inkscape:vp_x="2.1085087 : -0.01579032 : 1"
       inkscape:vp_y="-9.1717358 : 40.677048 : 0"
       inkscape:vp_z="2.439686 : 0.66241427 : 1"
       inkscape:persp3d-origin="2.3474712 : -0.0021044275 : 1"
       id="perspective4515" />
  </defs>
  <sodipodi:namedview
     pagecolor="#ffffff"
     bordercolor="#666666"
     borderopacity="1"
     objecttolerance="10"
     gridtolerance="10"
     guidetolerance="10"
     inkscape:pageopacity="0"
     inkscape:pageshadow="2"
     inkscape:window-width="1920"
     inkscape:window-height="1007"
     id="namedview14"
     showgrid="true"
     inkscape:zoom="21.320001"
     inkscape:cx="5.1360223"
     inkscape:cy="13.742964"
     inkscape:window-x="0"
     inkscape:window-y="0"
     inkscape:window-maximized="1"
     inkscape:current-layer="svg12"
     inkscape:measure-start="37,16"
     inkscape:measure-end="41,16"
     inkscape:document-rotation="0"
     inkscape:showpageshadow="0"
     inkscape:pagecheckerboard="1"
     inkscape:deskcolor="#d1d1d1">
    <inkscape:grid
       type="xygrid"
       id="grid4510" />
  </sodipodi:namedview>
  <rect
     style="fill:#444444;fill-opacity:1;stroke-width:0.594686"
     id="rect823"
     width="16"
     height="1.8566753"
     x="-20"
     y="5.754786"
     ry="1.1140051"
     rx="0.45714295"
     transform="rotate(-90)" />
  <rect
     transform="rotate(-90)"
     rx="0.45714295"
     ry="1.1140051"
     y="16.409334"
     x="-20"
     height="1.8566753"
     width="16"
     id="rect825"
     style="fill:#444444;fill-opacity:1;stroke-width:0.594686" />
  <circle
     style="fill:#444444;fill-opacity:1;stroke:#232629;stroke-width:0.254545;stroke-miterlimit:4;stroke-dasharray:none;stroke-opacity:1"
     id="path40"
     cx="6.6831255"
     cy="10.254546"
     r="2.1818182" />
  <rect
     transform="rotate(-90)"
     rx="0.45714295"
     ry="1.1140051"
     y="11.063872"
     x="-20"
     height="1.8566753"
     width="16"
     id="rect847"
     style="fill:#444444;fill-opacity:1;stroke-width:0.594686" />
  <circle
     r="2.1818182"
     cy="14.618181"
     cx="11.992209"
     id="circle849"
     style="fill:#444444;fill-opacity:1;stroke:#232629;stroke-width:0.254545;stroke-miterlimit:4;stroke-dasharray:none;stroke-opacity:1" />
  <circle
     style="fill:#444444;fill-opacity:1;stroke:#232629;stroke-width:0.254545;stroke-miterlimit:4;stroke-dasharray:none;stroke-opacity:1"
     id="circle853"
     cx="17.337673"
     cy="8.0727282"
     r="2.1818182" />
  <path
     id="path948"
     style="display:inline;fill:#444444;fill-opacity:1;stroke-width:0.26;enable-background:new"
     d="M 12,1.55e-7 A 12,12 0 0 0 1.5e-7,12 12,12 0 0 0 12,24 12,12 0 0 0 24,12 12,12 0 0 0 12,1.55e-7 Z M 11.9668,1.2949202 a 10.704659,10.704659 0 0 1 0.0332,0 A 10.704659,10.704659 0 0 1 22.705075,12 10.704659,10.704659 0 0 1 12,22.70508 10.704659,10.704659 0 0 1 1.2949221,12 10.704659,10.704659 0 0 1 11.966797,1.2949202 Z" />
</svg>
