/* XPM */
static char * vidtuber_xpm[] = {
"48 48 210 2",
"  	c None",
". 	c #F04C29",
"+ 	c #EF4C29",
"@ 	c #EE4C29",
"# 	c #EF4C2A",
"$ 	c #EF4D29",
"% 	c #F8B4A5",
"& 	c #FCDAD3",
"* 	c #F05231",
"= 	c #F5907A",
"- 	c #F7A999",
"; 	c #EF502E",
"> 	c #ED4B29",
", 	c #F7AC9D",
"' 	c #FAD0C7",
") 	c #EE5130",
"! 	c #EC4B29",
"~ 	c #FFFFFF",
"{ 	c #ED5333",
"] 	c #EA4B28",
"^ 	c #F8BFB3",
"/ 	c #FDEBE7",
"( 	c #EB5230",
"_ 	c #E84A28",
": 	c #E74928",
"< 	c #EE7B63",
"[ 	c #F08E79",
"} 	c #E74C2B",
"| 	c #E64927",
"1 	c #E54927",
"2 	c #F8CFC6",
"3 	c #E65231",
"4 	c #E44827",
"5 	c #FBE5E0",
"6 	c #E65637",
"7 	c #E24827",
"8 	c #FDF2F0",
"9 	c #E4593B",
"0 	c #E14827",
"a 	c #F8D3CB",
"b 	c #E25232",
"c 	c #DF4726",
"d 	c #DE4726",
"e 	c #DD4626",
"f 	c #DC4625",
"g 	c #DB4625",
"h 	c #DA4525",
"i 	c #F5CEC6",
"j 	c #DC4E2F",
"k 	c #DC4626",
"l 	c #D8593E",
"m 	c #EFCAC1",
"n 	c #EECBC4",
"o 	c #EDCBC4",
"p 	c #FAF1EF",
"q 	c #EECDC7",
"r 	c #EFCCC4",
"s 	c #DB6F58",
"t 	c #D94525",
"u 	c #DB4626",
"v 	c #DA4626",
"w 	c #D84525",
"x 	c #CC4123",
"y 	c #AD371E",
"z 	c #B48B82",
"A 	c #CCB3AD",
"B 	c #A3341C",
"C 	c #C74023",
"D 	c #D64425",
"E 	c #D84425",
"F 	c #D14223",
"G 	c #B93A1F",
"H 	c #812A17",
"I 	c #BFB2AF",
"J 	c #DFDAD8",
"K 	c #792F1F",
"L 	c #B1381E",
"M 	c #CD4123",
"N 	c #D74425",
"O 	c #D64424",
"P 	c #CA4022",
"Q 	c #A8361D",
"R 	c #6E2B1D",
"S 	c #DDD8D7",
"T 	c #F4F3F2",
"U 	c #734036",
"V 	c #9E321B",
"W 	c #C53F22",
"X 	c #D44324",
"Y 	c #D74525",
"Z 	c #D34324",
"` 	c #C43F22",
" .	c #9D321B",
"..	c #703F34",
"+.	c #F3F2F1",
"@.	c #FEFEFE",
"#.	c #84635B",
"$.	c #8F2E19",
"%.	c #BE3D21",
"&.	c #D04324",
"*.	c #D44325",
"=.	c #CF4224",
"-.	c #BC3C21",
";.	c #8F2D19",
">.	c #86665F",
",.	c #A28F8B",
"'.	c #802916",
").	c #B4391F",
"!.	c #D34325",
"~.	c #D24224",
"{.	c #B2381E",
"].	c #7E2815",
"^.	c #A89793",
"/.	c #C9C1BF",
"(.	c #712616",
"_.	c #AA361D",
":.	c #C73F22",
"<.	c #D04223",
"[.	c #A9361D",
"}.	c #6E2516",
"|.	c #CCC5C3",
"1.	c #E6E3E3",
"2.	c #6B3124",
"3.	c #A0331B",
"4.	c #C23D21",
"5.	c #CE4123",
"6.	c #D24324",
"7.	c #D14224",
"8.	c #D04224",
"9.	c #CC4023",
"0.	c #C03D21",
"a.	c #6B3126",
"b.	c #E9E6E6",
"c.	c #FBFAFA",
"d.	c #774E45",
"e.	c #932E19",
"f.	c #BB3B20",
"g.	c #CB4023",
"h.	c #CF4124",
"i.	c #CD4124",
"j.	c #C94023",
"k.	c #B93B20",
"l.	c #902E19",
"m.	c #744C43",
"n.	c #FAF9F9",
"o.	c #8D746F",
"p.	c #842A17",
"q.	c #B3391F",
"r.	c #C73F23",
"s.	c #C53E22",
"t.	c #822916",
"u.	c #947C77",
"v.	c #B6AAA7",
"w.	c #742514",
"x.	c #CA4023",
"y.	c #C13D21",
"z.	c #722413",
"A.	c #B4A8A5",
"B.	c #D9D4D2",
"C.	c #6A291A",
"D.	c #BE3C21",
"E.	c #C84022",
"F.	c #CB4123",
"G.	c #C63F22",
"H.	c #6A2A1C",
"I.	c #DCD7D6",
"J.	c #F1EFEF",
"K.	c #6D3A30",
"L.	c #952F1A",
"M.	c #B83A20",
"N.	c #CD4022",
"O.	c #99301A",
"P.	c #7F4336",
"Q.	c #8E5F55",
"R.	c #C43E22",
"S.	c #C83F23",
"T.	c #C83F22",
"U.	c #C33E21",
"V.	c #A9351D",
"W.	c #A5341C",
"X.	c #B73A1F",
"Y.	c #D74424",
"Z.	c #C84023",
"`.	c #CA4123",
" +	c #C33E22",
".+	c #D84625",
"++	c #C84123",
"@+	c #C23E21",
"#+	c #D14123",
"$+	c #C13E21",
"%+	c #CF4125",
"&+	c #98311A",
"*+	c #A8341D",
"=+	c #A9371E",
"-+	c #A8371D",
";+	c #A5361D",
">+	c #A2351C",
",+	c #A1341C",
"'+	c #9E341C",
")+	c #9C331B",
"!+	c #9A321B",
"~+	c #99321B",
"{+	c #97311A",
"]+	c #96311A",
"^+	c #95311A",
"/+	c #95301A",
"(+	c #93301A",
"_+	c #AB361C",
":+	c #A2341D",
"<+	c #000000",
"                                                                                                ",
"                                                                                                ",
"                                                                                                ",
"                                                                                                ",
"              . + + + + + + + + + + + + + + + + + + + + + + + + + + + + + + + @ +               ",
"          + + + + + + + + + + + + + + + + + + + + + + + + + + + + + + + + + + + + + +           ",
"        # + + + + + + + + + + + + + + + + + + + + + + + + + + + + + + + + + + + + + + +         ",
"      # + + + + + + + + + + + + + + + + + + + + + + + + + + + + + + + + + + + + + + + + +       ",
"      + + + + + + + + + + + + + + + + + + + + + + + + + + + + + + + + + + + + + + + + + +       ",
"    @ + + + + + + + + + + + + + + + + + + + + + + + + + + + + + + + + + + + + + + + + + + $     ",
"    + + + + + + + + + + + + + + + + % & & & & & & & & & & & * + + + + + + + + + + + + + + +     ",
"    + + + + + + + + + + + + + + + + = - - - - - - - - - - - ; + + + + + + + + + + + + + + +     ",
"    + + + + + + + + + + + + + + + + + + + + + + + + + + + + + + + + + + + + + + + + + + + +     ",
"    + + @ > > > > > > > > > > > > > , ' ' ' ' ' ' ' ' ' ' ' ) > > > > > > > > > > > > @ + +     ",
"    + @ ! ! ! ! ! ! ! ! ! ! ! ! ! ! ' ~ ~ ~ ~ ~ ~ ~ ~ ~ ~ ~ { ! ! ! ! ! ! ! ! ! ! ! ! ! @ +     ",
"    + ] ] ] ] ] ] ] ] ] ] ] ] ] ] ] ^ / / / / / / / / / / / ( ] ] ] ] ] ] ] ] ] ] ] ] ] ] +     ",
"    ! _ _ _ _ _ _ _ _ _ _ _ _ _ _ _ _ _ _ _ _ _ _ _ _ _ _ _ _ _ _ _ _ _ _ _ _ _ _ _ _ _ _ !     ",
"    _ : : : : : : : : : : : : : : : < [ [ [ [ [ [ [ [ [ [ [ } : : : : : : : : : : : : : : _     ",
"    | 1 1 1 1 1 1 1 1 1 1 1 1 1 1 1 2 ~ ~ ~ ~ ~ ~ ~ ~ ~ ~ ~ 3 1 1 1 1 1 1 1 1 1 1 1 1 1 1 |     ",
"    4 4 4 4 4 4 4 4 4 4 4 4 4 4 4 4 5 ~ ~ ~ ~ ~ ~ ~ ~ ~ ~ ~ 6 4 4 4 4 4 4 4 4 4 4 4 4 4 4 4     ",
"    7 7 7 7 7 7 7 7 7 7 7 7 7 7 7 7 8 ~ ~ ~ ~ ~ ~ ~ ~ ~ ~ ~ 9 7 7 7 7 7 7 7 7 7 7 7 7 7 7 7     ",
"    0 0 0 0 0 0 0 0 0 0 0 0 0 0 0 0 a ~ ~ ~ ~ ~ ~ ~ ~ ~ ~ ~ b 0 0 0 0 0 0 0 0 0 0 0 0 0 0 0     ",
"    c c c c c c c c c c d e f g h h i ~ ~ ~ ~ ~ ~ ~ ~ ~ ~ ~ j h g f e d c c c c c c c c c c     ",
"    e e e e e e e e e k h l m n o o p ~ ~ ~ ~ ~ ~ ~ ~ ~ ~ ~ q o n r s t k e e e e e e e e e     ",
"    u u u u u u u u v w x y z ~ ~ ~ ~ ~ ~ ~ ~ ~ ~ ~ ~ ~ ~ ~ ~ ~ ~ A B C D v u u u u u u u u     ",
"    h h h h h h h h h E F G H I ~ ~ ~ ~ ~ ~ ~ ~ ~ ~ ~ ~ ~ ~ ~ ~ J K L M N h h h h h h h h h     ",
"    t t t t t t t t t t O P Q R S ~ ~ ~ ~ ~ ~ ~ ~ ~ ~ ~ ~ ~ ~ T U V W X w t t t t t t t t t     ",
"    w w w w w w w w w w Y Z `  ...+.~ ~ ~ ~ ~ ~ ~ ~ ~ ~ ~ ~ @.#.$.%.&.D w w w w w w w w w w     ",
"    D D D D D D D D D D D *.=.-.;.>.~ ~ ~ ~ ~ ~ ~ ~ ~ ~ ~ ~ ,.'.).x !.D D D D D D D D D D D     ",
"    X X X X X X X X X X X X ~.P {.].^.~ ~ ~ ~ ~ ~ ~ ~ ~ ~ /.(._.:.F X X X X X X X X X X X X     ",
"    Z Z Z Z Z Z Z Z Z Z Z Z Z <.W [.}.|.~ ~ ~ ~ ~ ~ ~ ~ 1.2.3.4.5.6.Z Z Z Z Z Z Z Z Z Z Z Z     ",
"    7.7.7.7.7.7.7.7.7.7.7.7.7.8.9.0. .a.b.~ ~ ~ ~ ~ ~ c.d.e.f.g.h.7.7.7.7.7.7.7.7.7.7.7.7.7.    ",
"    =.=.=.=.=.=.=.=.=.=.=.=.=.=.i.j.k.l.m.n.~ ~ ~ ~ ~ o.p.q.r.i.=.=.=.=.=.=.=.=.=.=.=.=.=.=.    ",
"    M M M M M M M M M M M M M M M g.s.L t.u.~ ~ ~ ~ v.w.[.4.g.M M M M M M M M M M M M M M M     ",
"    x x x x x x x x x x x x x x x x x.y.Q z.A.~ ~ B.C.3.D.E.F.x x x x x x x x x x x x x x x     ",
"    g.x.x.x.x.x.x.x.x.x.x.x.x.x.x.x.j.G.f. .H.I.J.K.L.M.s.j.x.x.x.x.x.x.x.x.x.x.x.x.x.x.x.x     ",
"    N.x.x.x.x.x.x.x.x.x.x.x.x.x.x.x.x.j.s.M.O.P.Q.l.).R.S.x.x.x.x.x.x.x.x.x.x.x.x.x.x.x.x.7.    ",
"      T.T.T.T.T.T.T.T.T.T.T.T.T.T.T.T.T.G.U.f.V.W.X.4.G.T.T.T.T.T.T.T.T.T.T.T.T.T.T.T.T.T.Y.    ",
"      Z.G.G.G.G.G.G.G.G.G.G.G.G.G.G.G.G.G.W R.y.0.U.W G.G.G.G.G.G.G.G.G.G.G.G.G.G.G.G.G.`.      ",
"        R.R.R.R.R.R.R.R.R.R.R.R.R.R.R.R.R.R.R. + +R.R.R.R.R.R.R.R.R.R.R.R.R.R.R.R.R.R.R..+      ",
"        ++@+@+@+@+@+@+@+@+@+@+@+@+@+@+@+@+@+@+@+@+@+@+@+@+@+@+@+@+@+@+@+@+@+@+@+@+@+@+#+        ",
"            $+y.y.y.y.y.y.y.y.y.y.y.y.y.y.y.y.y.y.y.y.y.y.y.y.y.y.y.y.y.y.y.y.y.y. +%+          ",
"              &+*+=+-+;+>+,+'+)+!+~+{+]+^+/+(+(+(+(+/+^+]+{+~+!+)+'+,+>+;+-+=+_+:+              ",
"                        <+<+<+<+<+<+<+<+<+<+<+<+<+<+<+<+<+<+<+<+<+<+<+<+                        ",
"                                        <+<+<+<+<+<+<+<+                                        ",
"                                                                                                ",
"                                                                                                ",
"                                                                                                "};
